<?xml version="1.0" encoding="UTF-8"?>
<!DOCTYPE svg PUBLIC "-//W3C//DTD SVG 1.1//EN" "http://www.w3.org/Graphics/SVG/1.1/DTD/svg11.dtd">
<svg xmlns="http://www.w3.org/2000/svg" version="1.1" width="500px" height="500px" style="shape-rendering:geometricPrecision; text-rendering:geometricPrecision; image-rendering:optimizeQuality; fill-rule:evenodd; clip-rule:evenodd" xmlns:xlink="http://www.w3.org/1999/xlink">
<g><path style="opacity:1" fill="#f7eeee" d="M -0.5,-0.5 C 166.167,-0.5 332.833,-0.5 499.5,-0.5C 499.5,166.167 499.5,332.833 499.5,499.5C 332.833,499.5 166.167,499.5 -0.5,499.5C -0.5,332.833 -0.5,166.167 -0.5,-0.5 Z"/></g>
<g><path style="opacity:1" fill="#242424" d="M 250.5,280.5 C 249.833,281.167 249.167,281.833 248.5,282.5C 247.911,277.519 247.411,272.519 247,267.5C 235.026,263.526 227.026,255.526 223,243.5C 221.478,238.394 219.811,233.394 218,228.5C 211.077,236.379 203.41,237.379 195,231.5C 190.667,220.678 193.501,212.178 203.5,206C 195.5,205.667 187.5,205.333 179.5,205C 162.127,200.339 155.961,189.505 161,172.5C 169.021,164.851 178.521,162.351 189.5,165C 193.55,165.794 197.55,166.794 201.5,168C 209.502,171.83 217.169,175.83 224.5,180C 229.447,171.223 236.113,164.389 244.5,159.5C 242.78,154.393 240.28,149.726 237,145.5C 231.378,139.857 225.045,135.19 218,131.5C 217.058,128.77 218.058,127.437 221,127.5C 233.745,132.075 243.245,140.408 249.5,152.5C 254.752,141.204 263.085,133.037 274.5,128C 276.5,127.333 278.5,127.333 280.5,128C 281.86,129.938 281.527,131.604 279.5,133C 266.88,138.452 258.214,147.619 253.5,160.5C 256.985,162.075 260.318,163.909 263.5,166C 267.718,170.712 271.718,175.546 275.5,180.5C 285.007,173.746 295.34,168.58 306.5,165C 312.833,164.333 319.167,164.333 325.5,165C 341.121,170.861 344.621,181.028 336,195.5C 331.019,200.908 324.852,204.074 317.5,205C 310.167,205.333 302.833,205.667 295.5,206C 303.994,211.156 307.494,218.656 306,228.5C 301.463,235.426 295.296,237.26 287.5,234C 285.023,232.357 282.69,230.524 280.5,228.5C 278.163,242.351 271.83,253.851 261.5,263C 258.673,264.623 255.673,265.79 252.5,266.5C 251.653,271.154 250.987,275.821 250.5,280.5 Z"/></g>
<g><path style="opacity:1" fill="#e6ae03" d="M 246.5,168.5 C 247.239,168.369 247.906,168.536 248.5,169C 241.952,172.714 236.952,177.88 233.5,184.5C 232.209,184.737 231.209,184.404 230.5,183.5C 233.292,175.705 238.626,170.705 246.5,168.5 Z"/></g>
<g><path style="opacity:1" fill="#f1b601" d="M 252.5,168.5 C 260.205,170.853 265.538,175.853 268.5,183.5C 262.355,184.49 256.022,184.823 249.5,184.5C 249.5,179.167 249.5,173.833 249.5,168.5C 250.5,168.5 251.5,168.5 252.5,168.5 Z"/></g>
<g><path style="opacity:1" fill="#b88b00" d="M 246.5,168.5 C 248.5,167.167 250.5,167.167 252.5,168.5C 251.5,168.5 250.5,168.5 249.5,168.5C 249.5,173.833 249.5,179.167 249.5,184.5C 244.167,184.5 238.833,184.5 233.5,184.5C 236.952,177.88 241.952,172.714 248.5,169C 247.906,168.536 247.239,168.369 246.5,168.5 Z"/></g>
<g><path style="opacity:1" fill="#7f6412" d="M 230.5,183.5 C 231.209,184.404 232.209,184.737 233.5,184.5C 238.833,184.5 244.167,184.5 249.5,184.5C 256.022,184.823 262.355,184.49 268.5,183.5C 269.043,183.56 269.376,183.893 269.5,184.5C 256.167,185.833 242.833,185.833 229.5,184.5C 229.624,183.893 229.957,183.56 230.5,183.5 Z"/></g>
<g><path style="opacity:1" fill="#b48802" d="M 266.5,205.5 C 260.833,205.5 255.167,205.5 249.5,205.5C 249.5,211.5 249.5,217.5 249.5,223.5C 257.5,223.5 265.5,223.5 273.5,223.5C 273.5,222.167 273.5,220.833 273.5,219.5C 274.451,220.919 274.784,222.585 274.5,224.5C 257.833,224.5 241.167,224.5 224.5,224.5C 225.863,217.588 228.53,211.088 232.5,205C 244.008,204.174 255.341,204.341 266.5,205.5 Z"/></g>
<g><path style="opacity:1" fill="#f3b800" d="M 266.5,205.5 C 268.863,210.183 271.196,214.85 273.5,219.5C 273.5,220.833 273.5,222.167 273.5,223.5C 265.5,223.5 257.5,223.5 249.5,223.5C 249.5,217.5 249.5,211.5 249.5,205.5C 255.167,205.5 260.833,205.5 266.5,205.5 Z"/></g>
<g><path style="opacity:1" fill="#b58902" d="M 267.5,245.5 C 261.69,244.51 255.69,244.177 249.5,244.5C 249.827,249.214 249.493,253.88 248.5,258.5C 243.206,254.873 238.539,250.54 234.5,245.5C 233.386,244.224 232.386,244.224 231.5,245.5C 230.957,245.44 230.624,245.107 230.5,244.5C 243.167,243.167 255.833,243.167 268.5,244.5C 268.376,245.107 268.043,245.44 267.5,245.5 Z"/></g>
<g><path style="opacity:1" fill="#efb501" d="M 267.5,245.5 C 263.081,255.705 255.414,260.205 244.5,259C 238.617,255.951 234.284,251.451 231.5,245.5C 232.386,244.224 233.386,244.224 234.5,245.5C 238.539,250.54 243.206,254.873 248.5,258.5C 249.493,253.88 249.827,249.214 249.5,244.5C 255.69,244.177 261.69,244.51 267.5,245.5 Z"/></g>
<g><path style="opacity:1" fill="#868181" d="M 250.5,280.5 C 250.819,282.75 250.319,284.75 249,286.5C 248.51,285.207 248.343,283.873 248.5,282.5C 249.167,281.833 249.833,281.167 250.5,280.5 Z"/></g>
<g><path style="opacity:1" fill="#060606" d="M 271.5,286.5 C 274.167,286.5 276.833,286.5 279.5,286.5C 279.334,290.514 279.501,294.514 280,298.5C 285.884,293.083 291.55,293.416 297,299.5C 301.014,307.219 299.848,314.053 293.5,320C 288.637,322.329 284.137,321.829 280,318.5C 279.517,319.448 279.351,320.448 279.5,321.5C 276.833,321.5 274.167,321.5 271.5,321.5C 271.5,309.833 271.5,298.167 271.5,286.5 Z"/></g>
<g><path style="opacity:1" fill="#020202" d="M 303.5,286.5 C 306.167,286.5 308.833,286.5 311.5,286.5C 311.5,298.167 311.5,309.833 311.5,321.5C 308.833,321.5 306.167,321.5 303.5,321.5C 303.5,309.833 303.5,298.167 303.5,286.5 Z"/></g>
<g><path style="opacity:1" fill="#030303" d="M 158.5,288.5 C 164.842,288.334 171.175,288.5 177.5,289C 182.924,291.017 184.758,294.85 183,300.5C 181.649,302.019 180.149,303.352 178.5,304.5C 185.623,308.751 186.29,313.917 180.5,320C 173.239,321.348 165.906,321.848 158.5,321.5C 158.5,310.5 158.5,299.5 158.5,288.5 Z"/></g>
<g><path style="opacity:1" fill="#f0e7e7" d="M 166.5,294.5 C 169.187,294.336 171.854,294.503 174.5,295C 175.833,297 175.833,299 174.5,301C 171.854,301.497 169.187,301.664 166.5,301.5C 166.5,299.167 166.5,296.833 166.5,294.5 Z"/></g>
<g><path style="opacity:1" fill="#040404" d="M 197.5,311.5 C 199.675,314.562 202.509,315.228 206,313.5C 207.41,307.621 207.91,301.621 207.5,295.5C 210.167,295.5 212.833,295.5 215.5,295.5C 215.5,304.167 215.5,312.833 215.5,321.5C 212.833,321.5 210.167,321.5 207.5,321.5C 207.649,320.448 207.483,319.448 207,318.5C 201.318,322.793 195.984,322.459 191,317.5C 189.991,315.975 189.491,314.308 189.5,312.5C 189.5,306.833 189.5,301.167 189.5,295.5C 191.833,295.5 194.167,295.5 196.5,295.5C 196.179,301.026 196.512,306.36 197.5,311.5 Z"/></g>
<g><path style="opacity:1" fill="#6b6767" d="M 197.5,311.5 C 196.512,306.36 196.179,301.026 196.5,295.5C 194.167,295.5 191.833,295.5 189.5,295.5C 189.5,301.167 189.5,306.833 189.5,312.5C 188.51,306.69 188.177,300.69 188.5,294.5C 191.5,294.5 194.5,294.5 197.5,294.5C 197.5,300.167 197.5,305.833 197.5,311.5 Z"/></g>
<g><path style="opacity:1" fill="#090808" d="M 234.5,294.5 C 239.459,293.983 243.459,295.649 246.5,299.5C 253.111,292.633 259.278,292.967 265,300.5C 265.5,307.492 265.666,314.492 265.5,321.5C 262.833,321.5 260.167,321.5 257.5,321.5C 257.666,315.491 257.499,309.491 257,303.5C 253.706,300.689 250.706,301.022 248,304.5C 247.501,310.157 247.334,315.824 247.5,321.5C 244.833,321.5 242.167,321.5 239.5,321.5C 239.666,315.824 239.499,310.157 239,304.5C 236,300.5 233,300.5 230,304.5C 229.501,310.157 229.334,315.824 229.5,321.5C 226.833,321.5 224.167,321.5 221.5,321.5C 221.5,312.833 221.5,304.167 221.5,295.5C 224.167,295.5 226.833,295.5 229.5,295.5C 229.351,296.552 229.517,297.552 230,298.5C 231.397,296.93 232.897,295.596 234.5,294.5 Z"/></g>
<g><path style="opacity:1" fill="#0d0d0d" d="M 325.5,294.5 C 337.003,293.737 342.67,299.07 342.5,310.5C 336.463,310.171 330.463,310.504 324.5,311.5C 325.28,313.455 326.78,314.455 329,314.5C 333.091,312.696 337.258,312.363 341.5,313.5C 337.63,320.743 331.63,323.243 323.5,321C 316.911,316.573 314.745,310.406 317,302.5C 319.074,298.923 321.907,296.256 325.5,294.5 Z"/></g>
<g><path style="opacity:1" fill="#e8dfdf" d="M 283.5,301.5 C 290.088,301.657 292.588,304.99 291,311.5C 287.333,315.5 283.667,315.5 280,311.5C 278.756,307.191 279.923,303.858 283.5,301.5 Z"/></g>
<g><path style="opacity:1" fill="#e7dfdf" d="M 326.5,301.5 C 329.596,300.907 331.929,301.907 333.5,304.5C 330.5,305.833 327.5,305.833 324.5,304.5C 325.193,303.482 325.859,302.482 326.5,301.5 Z"/></g>
<g><path style="opacity:1" fill="#e9e0e0" d="M 166.5,307.5 C 169.187,307.336 171.854,307.503 174.5,308C 177.167,310.333 177.167,312.667 174.5,315C 171.854,315.497 169.187,315.664 166.5,315.5C 166.5,312.833 166.5,310.167 166.5,307.5 Z"/></g>
<g><path style="opacity:1" fill="#b98c05" d="M 208.5,354.5 C 215.947,354.071 223.281,354.571 230.5,356C 234.68,361.083 234.346,365.917 229.5,370.5C 234.029,373.318 235.529,377.318 234,382.5C 232.363,384.81 230.196,386.31 227.5,387C 221.175,387.5 214.842,387.666 208.5,387.5C 208.5,376.5 208.5,365.5 208.5,354.5 Z"/></g>
<g><path style="opacity:1" fill="#f7edeb" d="M 216.5,360.5 C 218.857,360.337 221.19,360.503 223.5,361C 226.167,363 226.167,365 223.5,367C 221.19,367.497 218.857,367.663 216.5,367.5C 216.5,365.167 216.5,362.833 216.5,360.5 Z"/></g>
<g><path style="opacity:1" fill="#ba8e11" d="M 263.5,376.5 C 257.463,376.171 251.463,376.504 245.5,377.5C 245.624,378.107 245.957,378.44 246.5,378.5C 247.312,379.993 248.645,380.66 250.5,380.5C 254.364,378.974 258.364,378.308 262.5,378.5C 262.21,382.961 259.877,385.795 255.5,387C 241.221,389.051 235.388,382.885 238,368.5C 245.172,358.62 253.172,357.954 262,366.5C 263.316,369.688 263.816,373.022 263.5,376.5 Z"/></g>
<g><path style="opacity:1" fill="#bc911a" d="M 275.5,360.5 C 287.571,359.904 293.238,365.571 292.5,377.5C 286.491,377.334 280.491,377.501 274.5,378C 275.529,379.698 277.029,380.532 279,380.5C 282.925,378.783 287.092,378.116 291.5,378.5C 288.393,386.884 282.393,389.717 273.5,387C 264.642,380.662 263.308,372.996 269.5,364C 271.432,362.541 273.432,361.375 275.5,360.5 Z"/></g>
<g><path style="opacity:1" fill="#f5e9e2" d="M 248.5,367.5 C 251.599,367.092 253.933,368.259 255.5,371C 252.167,371.667 248.833,371.667 245.5,371C 246.71,369.961 247.71,368.794 248.5,367.5 Z"/></g>
<g><path style="opacity:1" fill="#f5eae3" d="M 277.5,367.5 C 280.278,367.022 282.278,368.022 283.5,370.5C 280.554,371.655 277.554,371.821 274.5,371C 275.365,369.641 276.365,368.474 277.5,367.5 Z"/></g>
<g><path style="opacity:1" fill="#f4e8df" d="M 216.5,373.5 C 219.187,373.336 221.854,373.503 224.5,374C 227.167,376.333 227.167,378.667 224.5,381C 221.854,381.497 219.187,381.664 216.5,381.5C 216.5,378.833 216.5,376.167 216.5,373.5 Z"/></g>
<g><path style="opacity:1" fill="#dcc489" d="M 263.5,376.5 C 257.833,377.167 252.167,377.833 246.5,378.5C 245.957,378.44 245.624,378.107 245.5,377.5C 251.463,376.504 257.463,376.171 263.5,376.5 Z"/></g>
<g><path style="opacity:1" fill="#f5be2a" d="M 257.5,416.5 C 258.833,416.5 260.167,416.5 261.5,416.5C 261.5,421.5 261.5,426.5 261.5,431.5C 260.167,431.5 258.833,431.5 257.5,431.5C 257.5,426.5 257.5,421.5 257.5,416.5 Z"/></g>
<g><path style="opacity:1" fill="#f5be28" d="M 226.5,416.5 C 233.632,416.802 236.465,420.469 235,427.5C 232.487,431.212 228.987,432.378 224.5,431C 218.947,425.366 219.613,420.533 226.5,416.5 Z"/></g>
<g><path style="opacity:1" fill="#f8ede7" d="M 226.5,420.5 C 231.378,420.535 232.711,422.868 230.5,427.5C 227.208,429.177 225.208,428.177 224.5,424.5C 224.752,422.927 225.418,421.594 226.5,420.5 Z"/></g>
<g><path style="opacity:1" fill="#f5bf29" d="M 246.5,419.5 C 248.903,419.393 250.736,420.393 252,422.5C 252.498,425.482 252.665,428.482 252.5,431.5C 251.167,431.5 249.833,431.5 248.5,431.5C 248.5,428.833 248.5,426.167 248.5,423.5C 247.167,423.5 245.833,423.5 244.5,423.5C 244.5,426.167 244.5,428.833 244.5,431.5C 243.167,431.5 241.833,431.5 240.5,431.5C 240.5,427.833 240.5,424.167 240.5,420.5C 242.735,420.795 244.735,420.461 246.5,419.5 Z"/></g>
<g><path style="opacity:1" fill="#f5bf2d" d="M 267.5,415.5 C 269.346,415.222 270.68,415.889 271.5,417.5C 271.296,422.046 271.296,426.712 271.5,431.5C 270.167,431.5 268.833,431.5 267.5,431.5C 267.5,426.167 267.5,420.833 267.5,415.5 Z"/></g>
<g><path style="opacity:1" fill="#f5be29" d="M 282.5,419.5 C 284.903,419.393 286.736,420.393 288,422.5C 288.498,425.482 288.665,428.482 288.5,431.5C 287.167,431.5 285.833,431.5 284.5,431.5C 284.5,428.833 284.5,426.167 284.5,423.5C 283.167,423.5 281.833,423.5 280.5,423.5C 280.5,426.167 280.5,428.833 280.5,431.5C 279.167,431.5 277.833,431.5 276.5,431.5C 276.5,427.833 276.5,424.167 276.5,420.5C 278.144,420.286 279.644,420.62 281,421.5C 281.717,420.956 282.217,420.289 282.5,419.5 Z"/></g>
<g><path style="opacity:1" fill="#f6bf2b" d="M 304.5,426.5 C 302.076,426.192 299.743,426.526 297.5,427.5C 299.718,428.057 302.051,428.057 304.5,427.5C 303.172,431.254 300.506,432.421 296.5,431C 293.713,428.833 292.88,425.999 294,422.5C 297.333,418.5 300.667,418.5 304,422.5C 304.49,423.793 304.657,425.127 304.5,426.5 Z"/></g>
<g><path style="opacity:1" fill="#f8d98f" d="M 304.5,426.5 C 304.5,426.833 304.5,427.167 304.5,427.5C 302.051,428.057 299.718,428.057 297.5,427.5C 299.743,426.526 302.076,426.192 304.5,426.5 Z"/></g>
<g><path style="opacity:1" fill="#f5be2a" d="M 174.5,444.5 C 178.577,444.017 180.91,445.684 181.5,449.5C 173.752,448.434 173.585,449.434 181,452.5C 181.993,458.502 179.493,460.668 173.5,459C 172.643,458.311 171.977,457.478 171.5,456.5C 173.576,455.9 175.576,455.567 177.5,455.5C 175.78,454.08 173.946,452.747 172,451.5C 170.916,448.341 171.75,446.008 174.5,444.5 Z"/></g>
<g><path style="opacity:1" fill="#f5bd21" d="M 311.5,445.5 C 313.467,445.261 315.301,445.594 317,446.5C 318.205,450.616 319.705,454.616 321.5,458.5C 320.833,458.833 320.167,459.167 319.5,459.5C 317.913,458.638 316.246,457.971 314.5,457.5C 312.223,458.478 309.89,459.145 307.5,459.5C 308.63,454.776 309.964,450.109 311.5,445.5 Z"/></g>
<g><path style="opacity:1" fill="#f5bd21" d="M 187.5,444.5 C 188.833,444.5 190.167,444.5 191.5,444.5C 191.5,445.833 191.5,447.167 191.5,448.5C 193.792,448.244 195.959,448.577 198,449.5C 198.498,452.817 198.665,456.15 198.5,459.5C 197.5,459.5 196.5,459.5 195.5,459.5C 195.663,457.143 195.497,454.81 195,452.5C 193.989,451.663 192.822,451.33 191.5,451.5C 191.5,454.167 191.5,456.833 191.5,459.5C 190.167,459.5 188.833,459.5 187.5,459.5C 187.5,454.5 187.5,449.5 187.5,444.5 Z"/></g>
<g><path style="opacity:1" fill="#f5bd25" d="M 208.5,447.5 C 214.849,448.027 217.016,451.361 215,457.5C 207.767,461.602 204.1,459.602 204,451.5C 205.397,449.93 206.897,448.596 208.5,447.5 Z"/></g>
<g><path style="opacity:1" fill="#f6bf2f" d="M 226.5,447.5 C 233.899,449.272 235.233,453.105 230.5,459C 228.559,459.743 226.726,459.576 225,458.5C 224.503,460.81 224.337,463.143 224.5,465.5C 223.178,465.67 222.011,465.337 221,464.5C 220.501,459.177 220.334,453.844 220.5,448.5C 222.735,448.795 224.735,448.461 226.5,447.5 Z"/></g>
<g><path style="opacity:1" fill="#f5bc1e" d="M 238.5,448.5 C 241.85,448.335 245.183,448.502 248.5,449C 251.425,452.696 251.092,456.029 247.5,459C 245.559,459.743 243.726,459.576 242,458.5C 241.503,460.81 241.337,463.143 241.5,465.5C 240.5,465.5 239.5,465.5 238.5,465.5C 238.5,459.833 238.5,454.167 238.5,448.5 Z"/></g>
<g><path style="opacity:1" fill="#f5bf2d" d="M 255.5,443.5 C 257.346,443.222 258.68,443.889 259.5,445.5C 259.296,450.046 259.296,454.712 259.5,459.5C 258.167,459.5 256.833,459.5 255.5,459.5C 255.5,454.167 255.5,448.833 255.5,443.5 Z"/></g>
<g><path style="opacity:1" fill="#f5be29" d="M 270.5,447.5 C 272.903,447.393 274.736,448.393 276,450.5C 276.498,453.482 276.665,456.482 276.5,459.5C 275.167,459.5 273.833,459.5 272.5,459.5C 272.5,456.833 272.5,454.167 272.5,451.5C 271.167,451.5 269.833,451.5 268.5,451.5C 268.5,454.167 268.5,456.833 268.5,459.5C 267.167,459.5 265.833,459.5 264.5,459.5C 264.5,455.833 264.5,452.167 264.5,448.5C 266.144,448.286 267.644,448.62 269,449.5C 269.717,448.956 270.217,448.289 270.5,447.5 Z"/></g>
<g><path style="opacity:1" fill="#f5be27" d="M 283.5,448.5 C 286.833,448.5 290.167,448.5 293.5,448.5C 293.666,453.179 293.499,457.845 293,462.5C 288.855,466.576 285.022,466.243 281.5,461.5C 284.167,461.167 286.833,460.833 289.5,460.5C 281.632,459.432 279.632,455.432 283.5,448.5 Z"/></g>
<g><path style="opacity:1" fill="#f6bf2f" d="M 331.5,447.5 C 338.899,449.272 340.233,453.105 335.5,459C 333.559,459.743 331.726,459.576 330,458.5C 329.503,460.81 329.337,463.143 329.5,465.5C 328.178,465.67 327.011,465.337 326,464.5C 325.501,459.177 325.334,453.844 325.5,448.5C 327.735,448.795 329.735,448.461 331.5,447.5 Z"/></g>
<g><path style="opacity:1" fill="#f6bf2f" d="M 348.5,447.5 C 355.899,449.272 357.233,453.105 352.5,459C 350.559,459.743 348.726,459.576 347,458.5C 346.503,460.81 346.337,463.143 346.5,465.5C 345.178,465.67 344.011,465.337 343,464.5C 342.501,459.177 342.334,453.844 342.5,448.5C 344.735,448.795 346.735,448.461 348.5,447.5 Z"/></g>
<g><path style="opacity:1" fill="#f8ebdd" d="M 208.5,451.5 C 212.161,451.35 213.161,452.85 211.5,456C 207.707,456.487 206.707,454.987 208.5,451.5 Z"/></g>
<g><path style="opacity:1" fill="#f8ece2" d="M 225.5,451.5 C 229.161,451.35 230.161,452.85 228.5,456C 224.707,456.487 223.707,454.987 225.5,451.5 Z"/></g>
<g><path style="opacity:1" fill="#f8ebdd" d="M 242.5,451.5 C 246.161,451.35 247.161,452.85 245.5,456C 241.707,456.487 240.707,454.987 242.5,451.5 Z"/></g>
<g><path style="opacity:1" fill="#f8ede9" d="M 285.5,451.5 C 286.833,451.5 288.167,451.5 289.5,451.5C 289.884,453.665 289.217,455.332 287.5,456.5C 285.783,455.332 285.116,453.665 285.5,451.5 Z"/></g>
<g><path style="opacity:1" fill="#f8ece2" d="M 330.5,451.5 C 334.161,451.35 335.161,452.85 333.5,456C 329.707,456.487 328.707,454.987 330.5,451.5 Z"/></g>
<g><path style="opacity:1" fill="#f8ece2" d="M 347.5,451.5 C 351.161,451.35 352.161,452.85 350.5,456C 346.707,456.487 345.707,454.987 347.5,451.5 Z"/></g>
<g><path style="opacity:1" fill="#f8e8d4" d="M 313.5,450.5 C 315.104,451.287 315.771,452.62 315.5,454.5C 314.448,454.649 313.448,454.483 312.5,454C 313.337,452.989 313.67,451.822 313.5,450.5 Z"/></g>
</svg>
